%TF.GenerationSoftware,KiCad,Pcbnew,8.0.8*%
%TF.CreationDate,2025-03-27T02:04:05-07:00*%
%TF.ProjectId,basicPCB,62617369-6350-4434-922e-6b696361645f,rev?*%
%TF.SameCoordinates,Original*%
%TF.FileFunction,Legend,Top*%
%TF.FilePolarity,Positive*%
%FSLAX46Y46*%
G04 Gerber Fmt 4.6, Leading zero omitted, Abs format (unit mm)*
G04 Created by KiCad (PCBNEW 8.0.8) date 2025-03-27 02:04:05*
%MOMM*%
%LPD*%
G01*
G04 APERTURE LIST*
%ADD10C,0.150000*%
%ADD11C,0.127000*%
%ADD12C,0.200000*%
G04 APERTURE END LIST*
D10*
X84213095Y-93654819D02*
X84213095Y-94464342D01*
X84213095Y-94464342D02*
X84260714Y-94559580D01*
X84260714Y-94559580D02*
X84308333Y-94607200D01*
X84308333Y-94607200D02*
X84403571Y-94654819D01*
X84403571Y-94654819D02*
X84594047Y-94654819D01*
X84594047Y-94654819D02*
X84689285Y-94607200D01*
X84689285Y-94607200D02*
X84736904Y-94559580D01*
X84736904Y-94559580D02*
X84784523Y-94464342D01*
X84784523Y-94464342D02*
X84784523Y-93654819D01*
X85784523Y-94654819D02*
X85213095Y-94654819D01*
X85498809Y-94654819D02*
X85498809Y-93654819D01*
X85498809Y-93654819D02*
X85403571Y-93797676D01*
X85403571Y-93797676D02*
X85308333Y-93892914D01*
X85308333Y-93892914D02*
X85213095Y-93940533D01*
X123507716Y-59517319D02*
X123507716Y-60231604D01*
X123507716Y-60231604D02*
X123460097Y-60374461D01*
X123460097Y-60374461D02*
X123364859Y-60469700D01*
X123364859Y-60469700D02*
X123222002Y-60517319D01*
X123222002Y-60517319D02*
X123126764Y-60517319D01*
X124507716Y-60517319D02*
X123936288Y-60517319D01*
X124222002Y-60517319D02*
X124222002Y-59517319D01*
X124222002Y-59517319D02*
X124126764Y-59660176D01*
X124126764Y-59660176D02*
X124031526Y-59755414D01*
X124031526Y-59755414D02*
X123936288Y-59803033D01*
X124191526Y-68590165D02*
X124191526Y-69304569D01*
X124191526Y-69304569D02*
X124143900Y-69447450D01*
X124143900Y-69447450D02*
X124048646Y-69542704D01*
X124048646Y-69542704D02*
X123905765Y-69590330D01*
X123905765Y-69590330D02*
X123810511Y-69590330D01*
X124620168Y-68685419D02*
X124667795Y-68637792D01*
X124667795Y-68637792D02*
X124763049Y-68590165D01*
X124763049Y-68590165D02*
X125001183Y-68590165D01*
X125001183Y-68590165D02*
X125096437Y-68637792D01*
X125096437Y-68637792D02*
X125144064Y-68685419D01*
X125144064Y-68685419D02*
X125191691Y-68780673D01*
X125191691Y-68780673D02*
X125191691Y-68875927D01*
X125191691Y-68875927D02*
X125144064Y-69018808D01*
X125144064Y-69018808D02*
X124572541Y-69590330D01*
X124572541Y-69590330D02*
X125191691Y-69590330D01*
X84713095Y-66484819D02*
X84713095Y-67294342D01*
X84713095Y-67294342D02*
X84760714Y-67389580D01*
X84760714Y-67389580D02*
X84808333Y-67437200D01*
X84808333Y-67437200D02*
X84903571Y-67484819D01*
X84903571Y-67484819D02*
X85094047Y-67484819D01*
X85094047Y-67484819D02*
X85189285Y-67437200D01*
X85189285Y-67437200D02*
X85236904Y-67389580D01*
X85236904Y-67389580D02*
X85284523Y-67294342D01*
X85284523Y-67294342D02*
X85284523Y-66484819D01*
X85713095Y-66580057D02*
X85760714Y-66532438D01*
X85760714Y-66532438D02*
X85855952Y-66484819D01*
X85855952Y-66484819D02*
X86094047Y-66484819D01*
X86094047Y-66484819D02*
X86189285Y-66532438D01*
X86189285Y-66532438D02*
X86236904Y-66580057D01*
X86236904Y-66580057D02*
X86284523Y-66675295D01*
X86284523Y-66675295D02*
X86284523Y-66770533D01*
X86284523Y-66770533D02*
X86236904Y-66913390D01*
X86236904Y-66913390D02*
X85665476Y-67484819D01*
X85665476Y-67484819D02*
X86284523Y-67484819D01*
D11*
%TO.C,U1*%
X81850000Y-96740000D02*
X109750000Y-96740000D01*
X81850000Y-146240000D02*
X81850000Y-96740000D01*
X109750000Y-96740000D02*
X109750000Y-146240000D01*
X109750000Y-146240000D02*
X81850000Y-146240000D01*
D12*
%TO.C,J1*%
X122500000Y-54100000D02*
X121700000Y-54100000D01*
X122500000Y-57910000D02*
X121700000Y-57910000D01*
X125300000Y-54100000D02*
X124500000Y-54100000D01*
X125300000Y-57910000D02*
X124500000Y-57910000D01*
X123570000Y-58620000D02*
G75*
G02*
X123370000Y-58620000I-100000J0D01*
G01*
X123370000Y-58620000D02*
G75*
G02*
X123570000Y-58620000I100000J0D01*
G01*
D11*
%TO.C,J2*%
X124070000Y-65500000D02*
X124070000Y-65570000D01*
X124570000Y-65500000D02*
X124070000Y-65500000D01*
X124570000Y-67400000D02*
X124080000Y-67400000D01*
X125920000Y-67400000D02*
X125430000Y-67400000D01*
X125930000Y-65500000D02*
X125430000Y-65500000D01*
X125930000Y-65570000D02*
X125930000Y-65500000D01*
%TO.C,U2*%
X82000000Y-68000000D02*
X108000000Y-68000000D01*
X82000000Y-94000000D02*
X82000000Y-68000000D01*
X88000000Y-92000000D02*
X88000000Y-94000000D01*
X88000000Y-94000000D02*
X82000000Y-94000000D01*
X102000000Y-92000000D02*
X88000000Y-92000000D01*
X102000000Y-94000000D02*
X102000000Y-92000000D01*
X108000000Y-68000000D02*
X108000000Y-94000000D01*
X108000000Y-94000000D02*
X102000000Y-94000000D01*
D12*
X91100000Y-67500000D02*
G75*
G02*
X90900000Y-67500000I-100000J0D01*
G01*
X90900000Y-67500000D02*
G75*
G02*
X91100000Y-67500000I100000J0D01*
G01*
%TD*%
M02*
